<svg width="16" height="16" xmlns="http://www.w3.org/2000/svg">
  <path d="M6.667 10.21a5.91 5.91 0 01-2.17-.402 4.42 4.42 0 01-2.326.942.173.173 0 01-.167-.13c-.02-.085.043-.138.107-.2.313-.31.692-.554.84-1.596C2.354 8.234 2 7.498 2 6.699c0-1.94 2.09-3.511 4.667-3.511s4.666 1.571 4.666 3.51c0 1.941-2.09 3.512-4.666 3.512zm7.23 2.302c-.29-.282-.642-.503-.78-1.45 1.433-1.388 1.087-3.372-.785-4.45l.001.087c0 2.631-2.7 4.649-5.922 4.538.795.665 1.959 1.084 3.256 1.084.727 0 1.412-.132 2.014-.365.607.48 1.352.772 2.143.856a.16.16 0 00.172-.118c.02-.077-.04-.125-.099-.182z" />
</svg>